<?xml version="1.0" encoding="utf-8"?>
<!-- Generator: Adobe Illustrator 20.0.0, SVG Export Plug-In . SVG Version: 6.00 Build 0)  -->
<svg version="1.1" id="Layer_1" xmlns="http://www.w3.org/2000/svg" xmlns:xlink="http://www.w3.org/1999/xlink" x="0px" y="0px"
	 viewBox="0 0 1000 1000" style="enable-background:new 0 0 1000 1000;" xml:space="preserve">
<style type="text/css">
	.st0{fill:#17D8DC;}
	.st1{fill:#DED9D5;}
</style>
<path class="st0" d="M884.3,651.6C884.3,651.6,884.3,651.6,884.3,651.6l-0.1,115.8h0.1v115.8c63.9,0,115.8-51.8,115.8-115.8
	S948.3,651.6,884.3,651.6z"/>
<path class="st0" d="M771.8,651.6C771.8,651.5,771.8,651.5,771.8,651.6L656,651.5v0.1H540.2c0,63.9,51.8,115.8,115.8,115.8
	S771.8,715.5,771.8,651.6z"/>
<circle class="st1" cx="826.1" cy="709.4" r="58"/>
<rect x="651.7" y="883.8" class="st0" width="116" height="116"/>
<circle class="st1" cx="942.3" cy="941.8" r="58"/>
<rect x="768.1" y="883.6" class="st1" width="174.4" height="116.4"/>
<rect x="767.9" y="767.4" class="st1" width="116.4" height="116.4"/>
</svg>
